<svg version="1.1" id="Layer_1" xmlns="http://www.w3.org/2000/svg" xmlns:xlink="http://www.w3.org/1999/xlink" x="0px" y="0px"
	 width="100%" viewBox="0 0 512 512" enable-background="new 0 0 512 512" xml:space="preserve">
<path fill="#000000" opacity="1.000000" stroke="none" 
	d="
M288.000000,513.000000 
	C192.023300,513.000000 96.546600,513.000000 1.034948,513.000000 
	C1.034948,342.398285 1.034948,171.796539 1.034948,1.097402 
	C171.560043,1.097402 342.120178,1.097402 512.840149,1.097402 
	C512.840149,171.666550 512.840149,342.333252 512.840149,513.000000 
	C438.129852,513.000000 363.314911,513.000000 288.000000,513.000000 
M106.625893,234.504196 
	C98.985214,234.673218 91.343773,234.813889 83.704071,235.019302 
	C76.156105,235.222260 71.359322,239.501511 72.171852,246.889786 
	C73.400307,258.060120 75.596031,269.131989 77.587669,280.208496 
	C80.132378,294.360901 82.882942,308.476257 85.557732,322.676331 
	C82.485725,324.235077 79.614532,325.293701 77.193123,326.993225 
	C69.070557,332.693970 60.299782,337.797394 53.282696,344.667297 
	C43.779911,353.970703 38.044533,365.611786 36.541950,379.363800 
	C34.993309,393.537415 41.116138,407.641327 53.453327,414.248322 
	C62.013515,418.832611 71.177666,420.499420 80.716286,421.096252 
	C82.520241,421.209137 85.233139,422.239868 85.832100,423.595673 
	C89.095886,430.983582 94.848648,433.771240 102.467972,434.062683 
	C104.115524,434.125702 106.292671,434.599548 107.257408,435.718872 
	C110.883003,439.925323 115.447868,441.018768 120.667267,441.011963 
	C152.995499,440.969757 185.323822,440.990753 217.652115,440.990753 
	C276.143005,440.990753 334.634247,441.072968 393.123993,440.816162 
	C397.266846,440.797974 401.430298,438.372589 405.522888,436.896759 
	C407.690613,436.115051 409.706329,434.921570 411.825897,433.994629 
	C416.113434,432.119507 422.369110,431.455261 424.302216,428.204102 
	C427.801270,422.319275 431.478424,419.937073 438.001953,420.847839 
	C439.879425,421.109955 442.041016,420.610809 443.846405,419.892731 
	C451.179626,416.976013 459.342529,415.080475 465.511414,410.523254 
	C478.267578,401.099670 479.481445,387.206177 476.342865,372.733612 
	C472.975525,357.206024 463.714172,345.451385 451.231628,336.265533 
	C444.186676,331.081207 436.421356,326.875824 428.759857,322.091675 
	C428.872955,320.968262 428.910675,319.472168 429.186523,318.021332 
	C433.362976,296.052734 437.579254,274.091705 441.767639,252.125366 
	C443.944031,240.711014 439.190918,235.015076 427.526642,235.009354 
	C420.527740,235.005920 413.521912,235.170242 406.535370,234.875595 
	C405.006927,234.811127 402.584747,233.402344 402.204407,232.126617 
	C398.274628,218.945816 394.598969,205.686356 391.114075,192.380280 
	C390.758575,191.022949 391.684845,188.830109 392.736420,187.688110 
	C398.103027,181.860168 404.575256,176.855835 409.047791,170.439163 
	C418.674408,156.627960 421.002991,141.006271 420.254883,124.106705 
	C418.789337,90.999733 382.340881,67.596916 351.565613,82.652901 
	C339.502777,88.554298 329.830658,97.269691 320.721802,106.785538 
	C318.583923,109.018967 316.948181,109.466011 313.916016,108.124352 
	C307.088745,105.103462 300.028748,102.560356 292.938782,100.196854 
	C287.475220,98.375526 281.821747,97.123901 276.348511,95.644836 
	C276.594238,92.807739 276.673889,90.502014 277.010498,88.234444 
	C278.736908,76.604691 270.189819,71.610435 259.476135,73.788605 
	C250.256821,75.662949 244.213684,81.574692 240.085754,88.901367 
	C236.988861,94.398041 233.134460,96.801346 227.504684,97.699356 
	C226.359116,97.882095 225.211044,98.130554 224.107910,98.485031 
	C214.841583,101.462677 205.585434,104.472099 197.044495,107.239250 
	C189.408051,100.061363 182.494644,92.556953 174.585068,86.314850 
	C149.641525,66.629791 117.065865,71.862640 100.990379,98.163116 
	C89.513412,116.940117 90.753151,137.811783 99.514053,157.959320 
	C104.463028,169.340546 112.184898,178.500458 122.640022,185.232101 
	C121.653374,187.580856 120.639030,189.509216 120.016136,191.556656 
	C115.721588,205.672607 111.508736,219.813431 106.625893,234.504196 
z"/>
<path fill="#20201E" opacity="1.000000" stroke="none" 
	d="
M106.947754,234.225220 
	C111.508736,219.813431 115.721588,205.672607 120.016136,191.556656 
	C120.639030,189.509216 121.653374,187.580856 122.640022,185.232101 
	C112.184898,178.500458 104.463028,169.340546 99.514053,157.959320 
	C90.753151,137.811783 89.513412,116.940117 100.990379,98.163116 
	C117.065865,71.862640 149.641525,66.629791 174.585068,86.314850 
	C182.494644,92.556953 189.408051,100.061363 197.044495,107.239250 
	C205.585434,104.472099 214.841583,101.462677 224.107910,98.485031 
	C225.211044,98.130554 226.359116,97.882095 227.504684,97.699356 
	C233.134460,96.801346 236.988861,94.398041 240.085754,88.901367 
	C244.213684,81.574692 250.256821,75.662949 259.476135,73.788605 
	C270.189819,71.610435 278.736908,76.604691 277.010498,88.234444 
	C276.673889,90.502014 276.594238,92.807739 276.348511,95.644836 
	C281.821747,97.123901 287.475220,98.375526 292.938782,100.196854 
	C300.028748,102.560356 307.088745,105.103462 313.916016,108.124352 
	C316.948181,109.466011 318.583923,109.018967 320.721802,106.785538 
	C329.830658,97.269691 339.502777,88.554298 351.565613,82.652901 
	C382.340881,67.596916 418.789337,90.999733 420.254883,124.106705 
	C421.002991,141.006271 418.674408,156.627960 409.047791,170.439163 
	C404.575256,176.855835 398.103027,181.860168 392.736420,187.688110 
	C391.684845,188.830109 390.758575,191.022949 391.114075,192.380280 
	C394.598969,205.686356 398.274628,218.945816 402.204407,232.126617 
	C402.584747,233.402344 405.006927,234.811127 406.535370,234.875595 
	C413.521912,235.170242 420.527740,235.005920 427.526642,235.009354 
	C439.190918,235.015076 443.944031,240.711014 441.767639,252.125366 
	C437.579254,274.091705 433.362976,296.052734 429.186523,318.021332 
	C428.910675,319.472168 428.872955,320.968262 428.759857,322.091675 
	C436.421356,326.875824 444.186676,331.081207 451.231628,336.265533 
	C463.714172,345.451385 472.975525,357.206024 476.342865,372.733612 
	C479.481445,387.206177 478.267578,401.099670 465.511414,410.523254 
	C459.342529,415.080475 451.179626,416.976013 443.846405,419.892731 
	C442.041016,420.610809 439.879425,421.109955 438.001953,420.847839 
	C431.478424,419.937073 427.801270,422.319275 424.302216,428.204102 
	C422.369110,431.455261 416.113434,432.119507 411.825897,433.994629 
	C409.706329,434.921570 407.690613,436.115051 405.522888,436.896759 
	C401.430298,438.372589 397.266846,440.797974 393.123993,440.816162 
	C334.634247,441.072968 276.143005,440.990753 217.652115,440.990753 
	C185.323822,440.990753 152.995499,440.969757 120.667267,441.011963 
	C115.447868,441.018768 110.883003,439.925323 107.257408,435.718872 
	C106.292671,434.599548 104.115524,434.125702 102.467972,434.062683 
	C94.848648,433.771240 89.095886,430.983582 85.832100,423.595673 
	C85.233139,422.239868 82.520241,421.209137 80.716286,421.096252 
	C71.177666,420.499420 62.013515,418.832611 53.453327,414.248322 
	C41.116138,407.641327 34.993309,393.537415 36.541950,379.363800 
	C38.044533,365.611786 43.779911,353.970703 53.282696,344.667297 
	C60.299782,337.797394 69.070557,332.693970 77.193123,326.993225 
	C79.614532,325.293701 82.485725,324.235077 85.557732,322.676331 
	C82.882942,308.476257 80.132378,294.360901 77.587669,280.208496 
	C75.596031,269.131989 73.400307,258.060120 72.171852,246.889786 
	C71.359322,239.501511 76.156105,235.222260 83.704071,235.019302 
	C91.343773,234.813889 98.985214,234.673218 106.947754,234.225220 
M287.144684,103.283066 
	C286.783173,103.243919 286.421692,103.204781 285.352203,102.850021 
	C281.044006,101.871712 276.735809,100.893410 272.427612,99.915100 
	C272.272095,100.410629 272.116547,100.906158 271.961029,101.401688 
	C272.424194,101.995537 272.844727,102.629318 273.357330,103.176903 
	C277.381836,107.475990 277.287689,110.654182 272.793365,114.535568 
	C270.930573,116.144325 268.816467,117.462097 266.091095,119.026543 
	C265.141998,118.984261 264.192902,118.941978 263.061096,118.891563 
	C273.519958,109.159843 273.758118,108.650719 269.267670,105.848000 
	C267.881866,106.936722 266.496063,108.025436 264.748932,108.783287 
	C264.748932,108.783287 264.357300,108.488953 264.621399,107.822540 
	C267.262512,100.855728 270.321289,94.011009 272.405365,86.881371 
	C273.924072,81.685951 270.656616,77.561508 265.328918,78.074852 
	C260.551025,78.535233 255.101196,79.584160 251.447510,82.352646 
	C246.152054,86.365173 242.039154,92.023163 237.771271,97.263847 
	C236.141785,99.264732 234.775085,100.507889 232.056702,101.112984 
	C210.261185,105.964523 189.679413,113.921135 171.943481,127.754349 
	C147.193741,147.058014 131.181549,172.652710 120.980850,201.979324 
	C117.192329,212.871185 114.537018,224.157196 111.291138,235.521820 
	C120.457817,235.521820 128.544403,235.521820 135.619751,235.521820 
	C137.143356,226.610855 137.604446,217.839783 140.238785,209.778961 
	C145.625717,193.295654 156.573242,181.157181 173.161621,175.291229 
	C196.661865,166.981125 221.377365,180.444992 229.968750,205.637955 
	C233.295059,215.391861 233.776871,225.373871 232.062927,235.813293 
	C240.682953,235.813293 248.828415,235.813309 256.973877,235.813309 
	C265.201263,235.813309 273.428650,235.813293 281.856964,235.813293 
	C280.023926,223.349472 281.805176,212.164154 287.015381,201.592606 
	C296.577148,182.191559 316.279938,171.853256 335.753845,175.879486 
	C355.234741,179.907150 371.978760,197.698822 375.952972,218.988846 
	C376.972931,224.452744 377.129822,230.077744 377.678009,235.577026 
	C384.471863,235.577026 391.069794,235.577026 397.690033,235.577026 
	C393.842773,203.594315 377.738434,168.080765 354.714203,142.586075 
	C336.566589,122.491280 313.384888,110.621689 287.417786,103.763275 
	C287.417786,103.763275 287.360840,103.802979 287.144684,103.283066 
M442.984161,373.629578 
	C443.007843,373.824371 443.031555,374.019196 442.138824,374.129547 
	C436.664215,373.769592 431.184845,373.469391 425.716431,373.032257 
	C420.639709,372.626373 417.858002,374.298218 417.095245,379.889587 
	C415.748596,389.761169 413.644470,399.528778 411.890594,409.345886 
	C411.530090,411.363861 411.315277,413.407837 411.037476,415.409882 
	C422.070557,417.272247 441.934021,416.087128 450.776794,413.196899 
	C465.411163,408.413635 473.589111,396.852844 472.929962,382.973419 
	C471.624420,355.482605 446.536102,335.290680 426.817352,328.187683 
	C426.193329,332.903992 425.591553,337.451904 424.469391,342.557373 
	C423.022919,349.844025 421.455078,357.110016 420.210083,364.430939 
	C419.872498,366.416138 418.713593,369.340057 422.430756,369.914276 
	C429.274170,370.971497 436.122284,371.998505 442.991119,373.003662 
	C442.991119,373.003662 442.961761,373.041229 442.984161,373.629578 
M71.929787,372.948090 
	C71.929787,372.948090 71.914711,372.879089 72.729637,372.947693 
	C78.762642,371.952789 84.827568,371.108215 90.802536,369.839935 
	C92.042725,369.576691 94.000862,367.560150 93.845512,366.658997 
	C92.421822,358.400452 90.604607,350.209747 88.923836,341.148865 
	C88.270416,336.855927 87.616989,332.563019 86.824715,327.357880 
	C63.793159,339.525360 44.539158,353.233429 41.546524,380.693268 
	C40.303165,392.102112 43.669891,401.740295 53.510666,408.386963 
	C68.748291,418.678772 85.894325,415.576691 102.834229,415.996704 
	C102.834229,414.207550 102.988274,413.198883 102.810745,412.252411 
	C100.700508,401.002350 98.273453,389.802856 96.527405,378.497772 
	C95.840286,374.048920 93.528824,372.954224 89.865898,373.097443 
	C83.897415,373.330841 77.936943,373.769135 71.952667,373.510834 
	C71.926247,373.309082 71.899834,373.107300 71.929787,372.948090 
M371.217957,83.043678 
	C368.589294,83.263863 365.905334,83.216736 363.340881,83.747269 
	C345.660400,87.404999 334.236633,99.974205 322.145142,112.478539 
	C327.660248,115.535164 332.709961,118.333839 337.998322,121.772552 
	C341.052429,124.224602 344.106506,126.676651 347.072906,129.058273 
	C367.076874,111.489990 382.002167,107.215736 393.196838,116.032364 
	C390.155121,115.745987 387.540771,115.499847 384.174286,115.182892 
	C396.847046,126.438835 400.442169,140.026917 393.756531,152.878128 
	C390.896362,158.375992 386.161682,162.880417 382.487427,167.986389 
	C381.615814,169.197601 380.823608,171.323120 381.302032,172.493881 
	C382.989380,176.623001 385.244751,180.519989 387.565887,185.054413 
	C389.991730,183.354797 392.305084,182.062454 394.228333,180.335602 
	C412.977112,163.501465 419.180328,142.381561 414.768921,118.000130 
	C411.077667,97.598656 392.059265,82.319954 371.217957,83.043678 
M176.577820,119.682266 
	C181.672668,116.471626 186.767517,113.260979 193.321854,109.130600 
	C186.702774,103.128067 180.986938,97.378136 174.686218,92.362999 
	C165.126633,84.753922 154.738022,78.723442 141.010391,79.213974 
	C121.952271,79.556824 104.495155,93.453003 99.974762,111.902931 
	C97.530037,121.881035 96.954483,131.975250 99.072876,142.038834 
	C102.034752,156.109421 108.647858,168.165390 119.852242,177.459335 
	C124.166595,181.038071 124.862816,180.932617 127.576729,176.235458 
	C129.392105,173.093445 131.139740,169.912308 132.878952,166.817596 
	C112.388702,148.183548 111.743324,126.265030 130.594894,111.105927 
	C127.343330,111.376335 124.676353,111.598129 122.009377,111.819923 
	C122.611053,110.564575 123.317299,110.182854 124.064384,109.915100 
	C138.181839,104.855209 149.724945,110.098572 160.275299,119.074242 
	C162.737289,121.168770 164.991409,125.364395 167.289505,125.328041 
	C170.206772,125.281868 173.071365,121.905525 176.577820,119.682266 
M426.015381,240.165848 
	C312.439514,240.153992 198.863647,240.137253 85.287773,240.141388 
	C77.774307,240.141663 75.792641,242.833191 77.270370,250.698486 
	C80.525230,268.022614 83.761696,285.350250 87.029907,302.671875 
	C92.394569,331.104828 97.778481,359.534119 103.129410,388.768372 
	C105.421387,401.025116 107.756142,413.274109 109.991554,425.541138 
	C111.721230,435.032990 112.516937,435.748749 122.392891,435.748871 
	C212.156143,435.749969 301.919403,435.750031 391.682648,435.748779 
	C401.463379,435.748657 402.238464,435.008392 404.017303,425.461731 
	C414.829193,367.437378 425.667114,309.417877 436.540894,251.405121 
	C438.261597,242.224930 436.300171,239.845978 426.015381,240.165848 
M195.541382,177.697037 
	C189.936813,177.658600 184.101517,176.585449 178.770599,177.774185 
	C162.255142,181.456985 151.689484,192.525879 144.943024,207.570953 
	C140.916595,216.550186 139.927902,225.917603 141.474503,235.910034 
	C151.406235,235.910034 160.892563,236.032089 170.370682,235.807816 
	C172.282669,235.762573 175.215149,234.893906 175.839401,233.550766 
	C177.128571,230.776917 175.260345,228.890671 172.389145,227.557571 
	C167.446869,225.262848 166.202362,222.886200 166.748093,218.718948 
	C173.852051,222.904358 176.384384,222.274933 181.023758,215.533981 
	C186.135559,208.106598 193.193161,203.903961 202.282120,205.263519 
	C211.239990,206.603455 216.773865,212.684219 218.988663,221.192719 
	C220.164001,225.707916 219.836823,230.614227 220.194214,235.428894 
	C228.028412,236.741837 228.964691,235.984344 228.987900,227.971085 
	C228.995621,225.305344 229.146683,222.628632 228.963181,219.975555 
	C227.690750,201.579971 216.004684,182.949249 195.541382,177.697037 
M318.064087,206.983597 
	C325.951721,208.321472 330.950714,213.392944 334.858612,219.915405 
	C337.591919,224.477448 341.256866,225.344360 345.724518,222.536041 
	C346.618896,221.973846 347.445221,221.303421 348.616089,220.456375 
	C347.391846,226.677383 346.518890,227.586182 340.624756,230.728989 
	C339.477142,231.340927 338.887360,232.999069 338.040253,234.174652 
	C339.246338,234.751404 340.444824,235.808914 341.659760,235.828186 
	C350.646851,235.970764 359.640198,235.774658 368.625153,235.973404 
	C372.147247,236.051315 373.144623,234.776154 373.237762,231.362091 
	C373.624298,217.191422 368.843933,204.878265 359.719971,194.358383 
	C342.518311,174.524963 314.903198,173.217438 297.717316,192.514542 
	C288.081268,203.334320 284.581238,216.006042 284.894379,230.156296 
	C284.976624,233.870499 285.534912,236.031586 290.061768,236.033768 
	C294.723419,236.036011 293.986328,233.242874 294.009430,230.430267 
	C294.128235,215.974228 303.146698,206.858215 318.064087,206.983597 
M150.583099,142.130341 
	C154.715042,137.859634 158.847000,133.588928 162.964554,129.333115 
	C158.760620,122.009590 152.951324,117.192802 145.462891,114.744171 
	C139.407639,112.764183 133.786774,113.802071 128.896423,118.471359 
	C115.767586,131.006668 119.896408,150.947830 135.520477,161.937744 
	C140.397308,155.548218 145.292374,149.134827 150.583099,142.130341 
M369.828857,154.677368 
	C372.438202,158.425735 375.047516,162.174103 377.914185,166.292160 
	C387.867371,157.279922 394.449890,147.630188 391.988190,133.816879 
	C389.409332,119.346138 375.211304,112.698456 363.021576,120.689285 
	C359.589996,122.938820 356.747986,126.089867 353.645477,128.838562 
	C351.122314,131.073929 351.402588,132.856476 353.747650,135.422852 
	C359.223145,141.415115 364.235504,147.830536 369.828857,154.677368 
M212.300308,219.562759 
	C209.360687,214.417419 206.214569,212.727783 202.018219,214.040680 
	C197.925858,215.321045 195.191818,220.310669 196.033844,225.347504 
	C196.717438,229.436554 198.794891,232.471649 203.272324,232.959503 
	C207.264801,233.394547 211.702957,230.035904 212.705811,225.666763 
	C213.096664,223.963882 212.704483,222.081284 212.300308,219.562759 
M301.647583,222.276505 
	C300.797516,228.418045 303.739014,233.369980 308.917633,234.515457 
	C312.732880,235.359344 316.625702,232.739929 317.879272,228.485336 
	C319.437927,223.195190 317.226624,217.709213 312.786682,215.851349 
	C308.447052,214.035477 304.788513,215.942841 301.647583,222.276505 
M98.454788,420.912048 
	C96.039360,420.912048 93.623924,420.912048 91.033981,420.912048 
	C92.988701,427.606140 97.211586,429.574371 105.559158,428.097900 
	C105.236389,424.171997 105.676407,419.754700 98.454788,420.912048 
M412.787628,420.915497 
	C407.018494,420.713531 409.741638,425.516754 408.211853,427.956268 
	C416.189667,429.648285 421.030121,427.197876 422.177216,420.914032 
	C419.316162,420.914032 416.502228,420.914032 412.787628,420.915497 
z"/>
<path fill="#AEB350" opacity="1.000000" stroke="none" 
	d="
M103.154266,387.964966 
	C97.778481,359.534119 92.394569,331.104828 87.029907,302.671875 
	C83.761696,285.350250 80.525230,268.022614 77.270370,250.698486 
	C75.792641,242.833191 77.774307,240.141663 85.287773,240.141388 
	C198.863647,240.137253 312.439514,240.153992 426.427429,240.544540 
	C420.632660,248.039017 414.705231,255.423523 408.167145,262.220612 
	C387.870544,283.321167 366.328735,303.077301 343.327209,321.226501 
	C314.492004,343.978729 283.790863,363.644226 249.889191,378.049591 
	C226.813797,387.854675 202.912018,395.032349 177.883011,396.797577 
	C152.552399,398.584106 127.370514,396.753418 103.154266,387.964966 
M265.882385,352.055420 
	C267.888519,347.662842 267.332672,343.629333 263.934448,340.186005 
	C261.026154,337.239105 257.472778,336.226379 253.475067,337.624237 
	C248.903122,339.222931 246.387970,342.650299 246.371475,347.368896 
	C246.355804,351.852203 248.681137,355.231720 252.977676,356.974365 
	C257.595947,358.847534 261.378754,357.541199 265.882385,352.055420 
z"/>
<path fill="#989841" opacity="1.000000" stroke="none" 
	d="
M103.141846,388.366669 
	C127.370514,396.753418 152.552399,398.584106 177.883011,396.797577 
	C202.912018,395.032349 226.813797,387.854675 249.889191,378.049591 
	C283.790863,363.644226 314.492004,343.978729 343.327209,321.226501 
	C366.328735,303.077301 387.870544,283.321167 408.167145,262.220612 
	C414.705231,255.423523 420.632660,248.039017 426.889099,240.598129 
	C436.300171,239.845978 438.261597,242.224930 436.540894,251.405121 
	C425.667114,309.417877 414.829193,367.437378 404.017303,425.461731 
	C402.238464,435.008392 401.463379,435.748657 391.682648,435.748779 
	C301.919403,435.750031 212.156143,435.749969 122.392891,435.748871 
	C112.516937,435.748749 111.721230,435.032990 109.991554,425.541138 
	C107.756142,413.274109 105.421387,401.025116 103.141846,388.366669 
z"/>
<path fill="#FEFEFE" opacity="1.000000" stroke="none" 
	d="
M287.470154,103.717712 
	C313.384888,110.621689 336.566589,122.491280 354.714203,142.586075 
	C377.738434,168.080765 393.842773,203.594315 397.690033,235.577026 
	C391.069794,235.577026 384.471863,235.577026 377.678009,235.577026 
	C377.129822,230.077744 376.972931,224.452744 375.952972,218.988846 
	C371.978760,197.698822 355.234741,179.907150 335.753845,175.879486 
	C316.279938,171.853256 296.577148,182.191559 287.015381,201.592606 
	C281.805176,212.164154 280.023926,223.349472 281.856964,235.813293 
	C273.428650,235.813293 265.201263,235.813309 256.973877,235.813309 
	C248.828415,235.813309 240.682953,235.813293 232.062927,235.813293 
	C233.776871,225.373871 233.295059,215.391861 229.968750,205.637955 
	C221.377365,180.444992 196.661865,166.981125 173.161621,175.291229 
	C156.573242,181.157181 145.625717,193.295654 140.238785,209.778961 
	C137.604446,217.839783 137.143356,226.610855 135.619751,235.521820 
	C128.544403,235.521820 120.457817,235.521820 111.291138,235.521820 
	C114.537018,224.157196 117.192329,212.871185 120.980850,201.979324 
	C131.181549,172.652710 147.193741,147.058014 171.943481,127.754349 
	C189.679413,113.921135 210.261185,105.964523 232.056702,101.112984 
	C234.775085,100.507889 236.141785,99.264732 237.771271,97.263847 
	C242.039154,92.023163 246.152054,86.365173 251.447510,82.352646 
	C255.101196,79.584160 260.551025,78.535233 265.328918,78.074852 
	C270.656616,77.561508 273.924072,81.685951 272.405365,86.881371 
	C270.321289,94.011009 267.262512,100.855728 264.329285,108.401062 
	C264.092529,109.245598 264.147919,109.511604 264.203308,109.777618 
	C264.505615,109.556465 264.807953,109.335312 265.110260,109.114151 
	C266.496063,108.025436 267.881866,106.936722 269.268799,105.849442 
	C273.758118,108.650719 273.519958,109.159843 263.061096,118.891563 
	C264.192902,118.941978 265.141998,118.984261 266.871826,119.017036 
	C281.454834,117.164413 285.821716,113.795242 287.470154,103.717712 
z"/>
<path fill="#5B5261" opacity="1.000000" stroke="none" 
	d="
M424.989807,341.999817 
	C425.591553,337.451904 426.193329,332.903992 426.817352,328.187683 
	C446.536102,335.290680 471.624420,355.482605 472.929962,382.973419 
	C473.589111,396.852844 465.411163,408.413635 450.776794,413.196899 
	C441.934021,416.087128 422.070557,417.272247 411.037476,415.409882 
	C411.315277,413.407837 411.530090,411.363861 411.890594,409.345886 
	C413.644470,399.528778 415.748596,389.761169 417.095245,379.889587 
	C417.858002,374.298218 420.639709,372.626373 425.716431,373.032257 
	C431.184845,373.469391 436.664215,373.769592 442.779541,374.370605 
	C444.028992,374.482971 444.637756,374.354279 445.246521,374.225616 
	C444.484924,373.830841 443.723328,373.436035 442.961761,373.041229 
	C442.961761,373.041229 442.991119,373.003662 442.843140,372.715393 
	C440.473633,369.977783 437.658508,367.845978 436.145508,365.017639 
	C432.126862,357.505554 428.670105,349.692902 424.989807,341.999817 
z"/>
<path fill="#5B5261" opacity="1.000000" stroke="none" 
	d="
M71.973091,374.120972 
	C77.936943,373.769135 83.897415,373.330841 89.865898,373.097443 
	C93.528824,372.954224 95.840286,374.048920 96.527405,378.497772 
	C98.273453,389.802856 100.700508,401.002350 102.810745,412.252411 
	C102.988274,413.198883 102.834229,414.207550 102.834229,415.996704 
	C85.894325,415.576691 68.748291,418.678772 53.510666,408.386963 
	C43.669891,401.740295 40.303165,392.102112 41.546524,380.693268 
	C44.539158,353.233429 63.793159,339.525360 86.824715,327.357880 
	C87.616989,332.563019 88.270416,336.855927 88.653618,341.813293 
	C85.680283,348.796387 83.322624,355.295166 80.154205,361.371155 
	C77.994370,365.513062 74.701157,369.063934 71.914711,372.879089 
	C71.914711,372.879089 71.929787,372.948090 71.578247,372.940063 
	C70.386681,373.323425 69.546646,373.714844 68.706619,374.106232 
	C68.839462,374.424164 68.972305,374.742065 69.105141,375.059967 
	C70.061127,374.746979 71.017105,374.433960 71.973091,374.120972 
z"/>
<path fill="#5B5161" opacity="1.000000" stroke="none" 
	d="
M175.958679,119.965149 
	C173.071365,121.905525 170.206772,125.281868 167.289505,125.328041 
	C164.991409,125.364395 162.737289,121.168770 160.275299,119.074242 
	C149.724945,110.098572 138.181839,104.855209 124.064384,109.915100 
	C123.317299,110.182854 122.611053,110.564575 122.009377,111.819923 
	C124.676353,111.598129 127.343330,111.376335 130.594894,111.105927 
	C111.743324,126.265030 112.388702,148.183548 132.878952,166.817596 
	C131.139740,169.912308 129.392105,173.093445 127.576729,176.235458 
	C124.862816,180.932617 124.166595,181.038071 119.852242,177.459335 
	C108.647858,168.165390 102.034752,156.109421 99.072876,142.038834 
	C96.954483,131.975250 97.530037,121.881035 99.974762,111.902931 
	C104.495155,93.453003 121.952271,79.556824 141.559570,79.541916 
	C146.664078,82.534126 151.401169,84.933838 155.739349,87.914200 
	C167.021118,95.664841 174.709778,105.819435 175.958679,119.965149 
z"/>
<path fill="#5B5161" opacity="1.000000" stroke="none" 
	d="
M372.122986,83.173180 
	C392.059265,82.319954 411.077667,97.598656 414.768921,118.000130 
	C419.180328,142.381561 412.977112,163.501465 394.228333,180.335602 
	C392.305084,182.062454 389.991730,183.354797 387.565887,185.054413 
	C385.244751,180.519989 382.989380,176.623001 381.302032,172.493881 
	C380.823608,171.323120 381.615814,169.197601 382.487427,167.986389 
	C386.161682,162.880417 390.896362,158.375992 393.756531,152.878128 
	C400.442169,140.026917 396.847046,126.438835 384.174286,115.182892 
	C387.540771,115.499847 390.155121,115.745987 393.196838,116.032364 
	C382.002167,107.215736 367.076874,111.489990 347.072906,129.058273 
	C344.106506,126.676651 341.052429,124.224602 338.087372,121.117722 
	C342.501495,103.937958 353.005035,92.898285 368.451752,86.159492 
	C369.844635,85.551826 370.907074,84.186600 372.122986,83.173180 
z"/>
<path fill="#5B5261" opacity="1.000000" stroke="none" 
	d="
M195.949219,177.804474 
	C216.004684,182.949249 227.690750,201.579971 228.963181,219.975555 
	C229.146683,222.628632 228.995621,225.305344 228.987900,227.971085 
	C228.964691,235.984344 228.028412,236.741837 220.194214,235.428894 
	C219.836823,230.614227 220.164001,225.707916 218.988663,221.192719 
	C216.773865,212.684219 211.239990,206.603455 202.282120,205.263519 
	C193.193161,203.903961 186.135559,208.106598 181.023758,215.533981 
	C176.384384,222.274933 173.852051,222.904358 166.748093,218.718948 
	C166.202362,222.886200 167.446869,225.262848 172.389145,227.557571 
	C175.260345,228.890671 177.128571,230.776917 175.839401,233.550766 
	C175.215149,234.893906 172.282669,235.762573 170.370682,235.807816 
	C160.892563,236.032089 151.406235,235.910034 141.474503,235.910034 
	C139.927902,225.917603 140.916595,216.550186 144.943024,207.570953 
	C151.689484,192.525879 162.255142,181.456985 178.770599,177.774185 
	C184.101517,176.585449 189.936813,177.658600 195.949219,177.804474 
z"/>
<path fill="#5C5261" opacity="1.000000" stroke="none" 
	d="
M317.628296,206.964722 
	C303.146698,206.858215 294.128235,215.974228 294.009430,230.430267 
	C293.986328,233.242874 294.723419,236.036011 290.061768,236.033768 
	C285.534912,236.031586 284.976624,233.870499 284.894379,230.156296 
	C284.581238,216.006042 288.081268,203.334320 297.717316,192.514542 
	C314.903198,173.217438 342.518311,174.524963 359.719971,194.358383 
	C368.843933,204.878265 373.624298,217.191422 373.237762,231.362091 
	C373.144623,234.776154 372.147247,236.051315 368.625153,235.973404 
	C359.640198,235.774658 350.646851,235.970764 341.659760,235.828186 
	C340.444824,235.808914 339.246338,234.751404 338.040253,234.174652 
	C338.887360,232.999069 339.477142,231.340927 340.624756,230.728989 
	C346.518890,227.586182 347.391846,226.677383 348.616089,220.456375 
	C347.445221,221.303421 346.618896,221.973846 345.724518,222.536041 
	C341.256866,225.344360 337.591919,224.477448 334.858612,219.915405 
	C330.950714,213.392944 325.951721,208.321472 317.628296,206.964722 
z"/>
<path fill="#3E3742" opacity="1.000000" stroke="none" 
	d="
M150.385269,142.425873 
	C145.292374,149.134827 140.397308,155.548218 135.520477,161.937744 
	C119.896408,150.947830 115.767586,131.006668 128.896423,118.471359 
	C133.786774,113.802071 139.407639,112.764183 145.462891,114.744171 
	C152.951324,117.192802 158.760620,122.009590 162.964554,129.333115 
	C158.847000,133.588928 154.715042,137.859634 150.385269,142.425873 
z"/>
<path fill="#3E3742" opacity="1.000000" stroke="none" 
	d="
M369.632141,154.375977 
	C364.235504,147.830536 359.223145,141.415115 353.747650,135.422852 
	C351.402588,132.856476 351.122314,131.073929 353.645477,128.838562 
	C356.747986,126.089867 359.589996,122.938820 363.021576,120.689285 
	C375.211304,112.698456 389.409332,119.346138 391.988190,133.816879 
	C394.449890,147.630188 387.867371,157.279922 377.914185,166.292160 
	C375.047516,162.174103 372.438202,158.425735 369.632141,154.375977 
z"/>
<path fill="#3E3742" opacity="1.000000" stroke="none" 
	d="
M176.268250,119.823708 
	C174.709778,105.819435 167.021118,95.664841 155.739349,87.914200 
	C151.401169,84.933838 146.664078,82.534126 141.972687,79.565674 
	C154.738022,78.723442 165.126633,84.753922 174.686218,92.362999 
	C180.986938,97.378136 186.702774,103.128067 193.321854,109.130600 
	C186.767517,113.260979 181.672668,116.471626 176.268250,119.823708 
z"/>
<path fill="#3E3742" opacity="1.000000" stroke="none" 
	d="
M371.670471,83.108429 
	C370.907074,84.186600 369.844635,85.551826 368.451752,86.159492 
	C353.005035,92.898285 342.501495,103.937958 337.968018,120.797699 
	C332.709961,118.333839 327.660248,115.535164 322.145142,112.478539 
	C334.236633,99.974205 345.660400,87.404999 363.340881,83.747269 
	C365.905334,83.216736 368.589294,83.263863 371.670471,83.108429 
z"/>
<path fill="#3D3741" opacity="1.000000" stroke="none" 
	d="
M72.322174,372.913391 
	C74.701157,369.063934 77.994370,365.513062 80.154205,361.371155 
	C83.322624,355.295166 85.680283,348.796387 88.642776,342.238525 
	C90.604607,350.209747 92.421822,358.400452 93.845512,366.658997 
	C94.000862,367.560150 92.042725,369.576691 90.802536,369.839935 
	C84.827568,371.108215 78.762642,371.952789 72.322174,372.913391 
z"/>
<path fill="#3D3741" opacity="1.000000" stroke="none" 
	d="
M424.729614,342.278595 
	C428.670105,349.692902 432.126862,357.505554 436.145508,365.017639 
	C437.658508,367.845978 440.473633,369.977783 442.831787,372.732574 
	C436.122284,371.998505 429.274170,370.971497 422.430756,369.914276 
	C418.713593,369.340057 419.872498,366.416138 420.210083,364.430939 
	C421.455078,357.110016 423.022919,349.844025 424.729614,342.278595 
z"/>
<path fill="#FAFAFA" opacity="1.000000" stroke="none" 
	d="
M212.484650,219.921646 
	C212.704483,222.081284 213.096664,223.963882 212.705811,225.666763 
	C211.702957,230.035904 207.264801,233.394547 203.272324,232.959503 
	C198.794891,232.471649 196.717438,229.436554 196.033844,225.347504 
	C195.191818,220.310669 197.925858,215.321045 202.018219,214.040680 
	C206.214569,212.727783 209.360687,214.417419 212.484650,219.921646 
z"/>
<path fill="#F9F9F9" opacity="1.000000" stroke="none" 
	d="
M301.761505,221.908234 
	C304.788513,215.942841 308.447052,214.035477 312.786682,215.851349 
	C317.226624,217.709213 319.437927,223.195190 317.879272,228.485336 
	C316.625702,232.739929 312.732880,235.359344 308.917633,234.515457 
	C303.739014,233.369980 300.797516,228.418045 301.761505,221.908234 
z"/>
<path fill="#C3D6ED" opacity="1.000000" stroke="none" 
	d="
M287.443970,103.740494 
	C285.821716,113.795242 281.454834,117.164413 267.234589,118.959862 
	C268.816467,117.462097 270.930573,116.144325 272.793365,114.535568 
	C277.287689,110.654182 277.381836,107.475990 273.357330,103.176903 
	C272.844727,102.629318 272.424194,101.995537 271.961029,101.401688 
	C272.116547,100.906158 272.272095,100.410629 272.427612,99.915100 
	C276.735809,100.893410 281.044006,101.871712 285.882507,103.181671 
	C286.712189,103.664223 287.028198,103.760780 287.360840,103.802979 
	C287.360840,103.802979 287.417786,103.763275 287.443970,103.740494 
z"/>
<path fill="#A6AA4D" opacity="1.000000" stroke="none" 
	d="
M98.913956,420.912018 
	C105.676407,419.754700 105.236389,424.171997 105.559158,428.097900 
	C97.211586,429.574371 92.988701,427.606140 91.033981,420.912048 
	C93.623924,420.912048 96.039360,420.912048 98.913956,420.912018 
z"/>
<path fill="#A6AB4D" opacity="1.000000" stroke="none" 
	d="
M413.237976,420.914764 
	C416.502228,420.914032 419.316162,420.914032 422.177216,420.914032 
	C421.030121,427.197876 416.189667,429.648285 408.211853,427.956268 
	C409.741638,425.516754 407.018494,420.713531 413.237976,420.914764 
z"/>
<path fill="#3D3741" opacity="1.000000" stroke="none" 
	d="
M71.962875,373.815918 
	C71.017105,374.433960 70.061127,374.746979 69.105141,375.059967 
	C68.972305,374.742065 68.839462,374.424164 68.706619,374.106232 
	C69.546646,373.714844 70.386681,373.323425 71.550064,372.918762 
	C71.899834,373.107300 71.926247,373.309082 71.962875,373.815918 
z"/>
<path fill="#3D3741" opacity="1.000000" stroke="none" 
	d="
M442.972961,373.335388 
	C443.723328,373.436035 444.484924,373.830841 445.246521,374.225616 
	C444.637756,374.354279 444.028992,374.482971 443.237762,374.412842 
	C443.031555,374.019196 443.007843,373.824371 442.972961,373.335388 
z"/>
<path fill="#FEFEFE" opacity="1.000000" stroke="none" 
	d="
M287.252747,103.543022 
	C287.028198,103.760780 286.712189,103.664223 286.236511,103.339478 
	C286.421692,103.204781 286.783173,103.243919 287.252747,103.543022 
z"/>
<path fill="#FDFDF8" opacity="1.000000" stroke="none" 
	d="
M265.689423,352.390381 
	C261.378754,357.541199 257.595947,358.847534 252.977676,356.974365 
	C248.681137,355.231720 246.355804,351.852203 246.371475,347.368896 
	C246.387970,342.650299 248.903122,339.222931 253.475067,337.624237 
	C257.472778,336.226379 261.026154,337.239105 263.934448,340.186005 
	C267.332672,343.629333 267.888519,347.662842 265.689423,352.390381 
z"/>
<path fill="#20201E" opacity="1.000000" stroke="none" 
	d="
M264.929596,108.948723 
	C264.807953,109.335312 264.505615,109.556465 264.203308,109.777618 
	C264.147919,109.511604 264.092529,109.245598 264.197235,108.734268 
	C264.357300,108.488953 264.748932,108.783287 264.929596,108.948723 
z"/>
</svg>